# xmcd
#
# Track frame offsets: 
#        183
#        13990
#        29308
#        53493
#        70683
#        90065
#        108718
#        135615
#        159993
#        172788
#        202563
#        216308
#
# Disc length: 3087 seconds
#
# Revision: 6
# Processed by: cddbd v1.5.2PL0 Copyright (c) Steve Scherf et al.
# Submitted via: ExactAudioCopyFreeDBPlugin 1.0
#
DISCID=8d0c0d0c
DTITLE=Boston Symphony Orchestra, Seiji Ozawa - Respighi: Ancient Airs
DTITLE=and Dances
DYEAR=1979
DGENRE=Classical
TTITLE0=Respighi: Ancient Airs and Dances, Suite I: Balletto detto Il 
TTITLE0=Conte Orlando
TTITLE1=Respighi: Ancient Airs and Dances, Suite I: Gagliarda
TTITLE2=Respighi: Ancient Airs and Dances, Suite I: Villanella
TTITLE3=Respighi: Ancient Airs and Dances, Suite I: Passo mezzo e masc
TTITLE3=herada
TTITLE4=Respighi: Ancient Airs and Dances, Suite II: Laura soave, Ball
TTITLE4=etto con gagliarda, saltarello e canario
TTITLE5=Respighi: Ancient Airs and Dances, Suite II: Danza rustica
TTITLE6=Respighi: Ancient Airs and Dances, Suite II: Campanae parisien
TTITLE6=es - Aria
TTITLE7=Respighi: Ancient Airs and Dances, Suite II: Bergamasca
TTITLE8=Respighi: Ancient Airs and Dances, Suite III: Italiana
TTITLE9=Respighi: Ancient Airs and Dances, Suite III: Arie di corte
TTITLE10=Respighi: Ancient Airs and Dances, Suite III: Siciliana
TTITLE11=Respighi: Ancient Airs and Dances, Suite III: Passacaglia
EXTD=
EXTT0=
EXTT1=
EXTT2=
EXTT3=
EXTT4=
EXTT5=
EXTT6=
EXTT7=
EXTT8=
EXTT9=
EXTT10=
EXTT11=
PLAYORDER=
